<svg xmlns="http://www.w3.org/2000/svg" viewBox="0 0 32 32">
  <!-- Burger Icon for Royale with Cheese -->
  <!-- Top Bun -->
  <path d="M4 12C4 8 8 4 16 4C24 4 28 8 28 12C28 13 27 14 26 14H6C5 14 4 13 4 12Z" fill="#D2691E" stroke="#8B4513" stroke-width="0.5"/>
  <!-- Sesame Seeds -->
  <circle cx="10" cy="9" r="1" fill="#FFF8DC"/>
  <circle cx="16" cy="8" r="1" fill="#FFF8DC"/>
  <circle cx="22" cy="9" r="1" fill="#FFF8DC"/>
  <!-- Cheese -->
  <rect x="5" y="14" width="22" height="3" fill="#FFD700" rx="0.5"/>
  <!-- Meat Patty -->
  <rect x="5" y="17" width="22" height="4" fill="#8B4513" rx="1"/>
  <!-- Lettuce -->
  <path d="M5 21 Q6 22 8 21 T12 21 T16 21 T20 21 T24 21 T27 21" fill="#228B22" stroke="#006400" stroke-width="0.5"/>
  <!-- Bottom Bun -->
  <path d="M6 23H26C27 23 28 24 28 25C28 27 24 28 16 28C8 28 4 27 4 25C4 24 5 23 6 23Z" fill="#D2691E" stroke="#8B4513" stroke-width="0.5"/>
  <!-- Crown (Royale touch) -->
  <path d="M11 2 L12 4 L14 3 L15 5 L16 3 L17 5 L18 3 L20 4 L21 2 L21 6 H11 Z" fill="#DC2626" stroke="#8B0000" stroke-width="0.5"/>
</svg>